<mxfile host="app.diagrams.net" modified="2023-11-30T10:10:20.410Z" agent="Mozilla/5.0 (Windows NT 10.0; Win64; x64) AppleWebKit/537.36 (KHTML, like Gecko) Chrome/119.0.0.0 Safari/537.36" etag="j9ng9x5qRyRXXfSntbd-" version="22.1.5" type="device">
  <diagram name="Página-1" id="Vw8vPo7izhUwD8uDM8aF">
    <mxGraphModel dx="1434" dy="790" grid="1" gridSize="10" guides="1" tooltips="1" connect="1" arrows="1" fold="1" page="1" pageScale="1" pageWidth="827" pageHeight="1169" math="0" shadow="0">
      <root>
        <mxCell id="0" />
        <mxCell id="1" parent="0" />
        <mxCell id="IzAMs5iCtXHGtNtHmFGW-3" value="&lt;p style=&quot;margin:0px;margin-top:6px;text-align:center;&quot;&gt;&lt;b&gt;SpringBoot App&lt;/b&gt;&lt;/p&gt;&lt;hr&gt;&lt;p style=&quot;margin:0px;margin-left:8px;&quot;&gt;&lt;br&gt;&lt;/p&gt;" style="align=left;overflow=fill;html=1;dropTarget=0;whiteSpace=wrap;" vertex="1" parent="1">
          <mxGeometry x="150" y="100" width="310" height="770" as="geometry" />
        </mxCell>
        <mxCell id="IzAMs5iCtXHGtNtHmFGW-4" value="" style="shape=component;jettyWidth=8;jettyHeight=4;" vertex="1" parent="IzAMs5iCtXHGtNtHmFGW-3">
          <mxGeometry x="1" width="20" height="20" relative="1" as="geometry">
            <mxPoint x="-24" y="4" as="offset" />
          </mxGeometry>
        </mxCell>
        <mxCell id="IzAMs5iCtXHGtNtHmFGW-1" value="«REST Controller»&lt;br&gt;" style="html=1;dropTarget=0;whiteSpace=wrap;" vertex="1" parent="1">
          <mxGeometry x="200" y="210" width="180" height="90" as="geometry" />
        </mxCell>
        <mxCell id="IzAMs5iCtXHGtNtHmFGW-2" value="" style="shape=module;jettyWidth=8;jettyHeight=4;" vertex="1" parent="IzAMs5iCtXHGtNtHmFGW-1">
          <mxGeometry x="1" width="20" height="20" relative="1" as="geometry">
            <mxPoint x="-27" y="7" as="offset" />
          </mxGeometry>
        </mxCell>
        <mxCell id="IzAMs5iCtXHGtNtHmFGW-6" value="«Service»&lt;br&gt;" style="html=1;dropTarget=0;whiteSpace=wrap;" vertex="1" parent="1">
          <mxGeometry x="200" y="370" width="180" height="90" as="geometry" />
        </mxCell>
        <mxCell id="IzAMs5iCtXHGtNtHmFGW-7" value="" style="shape=module;jettyWidth=8;jettyHeight=4;" vertex="1" parent="IzAMs5iCtXHGtNtHmFGW-6">
          <mxGeometry x="1" width="20" height="20" relative="1" as="geometry">
            <mxPoint x="-27" y="7" as="offset" />
          </mxGeometry>
        </mxCell>
        <mxCell id="IzAMs5iCtXHGtNtHmFGW-8" value="«Repository»&lt;br&gt;" style="html=1;dropTarget=0;whiteSpace=wrap;" vertex="1" parent="1">
          <mxGeometry x="200" y="560" width="180" height="90" as="geometry" />
        </mxCell>
        <mxCell id="IzAMs5iCtXHGtNtHmFGW-9" value="" style="shape=module;jettyWidth=8;jettyHeight=4;" vertex="1" parent="IzAMs5iCtXHGtNtHmFGW-8">
          <mxGeometry x="1" width="20" height="20" relative="1" as="geometry">
            <mxPoint x="-27" y="7" as="offset" />
          </mxGeometry>
        </mxCell>
        <mxCell id="IzAMs5iCtXHGtNtHmFGW-10" value="«Base de Datos»&lt;br&gt;&lt;b&gt;H2&lt;/b&gt;" style="html=1;dropTarget=0;whiteSpace=wrap;" vertex="1" parent="1">
          <mxGeometry x="200" y="720" width="180" height="90" as="geometry" />
        </mxCell>
        <mxCell id="IzAMs5iCtXHGtNtHmFGW-11" value="" style="shape=module;jettyWidth=8;jettyHeight=4;" vertex="1" parent="IzAMs5iCtXHGtNtHmFGW-10">
          <mxGeometry x="1" width="20" height="20" relative="1" as="geometry">
            <mxPoint x="-27" y="7" as="offset" />
          </mxGeometry>
        </mxCell>
        <mxCell id="IzAMs5iCtXHGtNtHmFGW-16" value="" style="ellipse;whiteSpace=wrap;html=1;align=center;aspect=fixed;fillColor=none;strokeColor=none;resizable=0;perimeter=centerPerimeter;rotatable=0;allowArrows=0;points=[];outlineConnect=1;" vertex="1" parent="1">
          <mxGeometry x="485" y="660" width="10" height="10" as="geometry" />
        </mxCell>
        <mxCell id="IzAMs5iCtXHGtNtHmFGW-19" value="" style="rounded=0;orthogonalLoop=1;jettySize=auto;html=1;endArrow=halfCircle;endFill=0;endSize=6;strokeWidth=1;sketch=0;exitX=0.5;exitY=1;exitDx=0;exitDy=0;" edge="1" target="IzAMs5iCtXHGtNtHmFGW-21" parent="1" source="IzAMs5iCtXHGtNtHmFGW-1">
          <mxGeometry relative="1" as="geometry">
            <mxPoint x="510" y="345" as="sourcePoint" />
          </mxGeometry>
        </mxCell>
        <mxCell id="IzAMs5iCtXHGtNtHmFGW-20" value="" style="rounded=0;orthogonalLoop=1;jettySize=auto;html=1;endArrow=oval;endFill=0;sketch=0;sourcePerimeterSpacing=0;targetPerimeterSpacing=0;endSize=10;exitX=0.5;exitY=0;exitDx=0;exitDy=0;" edge="1" target="IzAMs5iCtXHGtNtHmFGW-21" parent="1" source="IzAMs5iCtXHGtNtHmFGW-6">
          <mxGeometry relative="1" as="geometry">
            <mxPoint x="90" y="360" as="sourcePoint" />
          </mxGeometry>
        </mxCell>
        <mxCell id="IzAMs5iCtXHGtNtHmFGW-21" value="" style="ellipse;whiteSpace=wrap;html=1;align=center;aspect=fixed;fillColor=none;strokeColor=none;resizable=0;perimeter=centerPerimeter;rotatable=0;allowArrows=0;points=[];outlineConnect=1;" vertex="1" parent="1">
          <mxGeometry x="285" y="330" width="10" height="10" as="geometry" />
        </mxCell>
        <mxCell id="IzAMs5iCtXHGtNtHmFGW-22" value="" style="rounded=0;orthogonalLoop=1;jettySize=auto;html=1;endArrow=halfCircle;endFill=0;endSize=6;strokeWidth=1;sketch=0;exitX=0.5;exitY=1;exitDx=0;exitDy=0;" edge="1" target="IzAMs5iCtXHGtNtHmFGW-24" parent="1" source="IzAMs5iCtXHGtNtHmFGW-6">
          <mxGeometry relative="1" as="geometry">
            <mxPoint x="325" y="505" as="sourcePoint" />
          </mxGeometry>
        </mxCell>
        <mxCell id="IzAMs5iCtXHGtNtHmFGW-23" value="" style="rounded=0;orthogonalLoop=1;jettySize=auto;html=1;endArrow=oval;endFill=0;sketch=0;sourcePerimeterSpacing=0;targetPerimeterSpacing=0;endSize=10;exitX=0.5;exitY=0;exitDx=0;exitDy=0;" edge="1" target="IzAMs5iCtXHGtNtHmFGW-24" parent="1" source="IzAMs5iCtXHGtNtHmFGW-8">
          <mxGeometry relative="1" as="geometry">
            <mxPoint x="285" y="505" as="sourcePoint" />
          </mxGeometry>
        </mxCell>
        <mxCell id="IzAMs5iCtXHGtNtHmFGW-24" value="" style="ellipse;whiteSpace=wrap;html=1;align=center;aspect=fixed;fillColor=none;strokeColor=none;resizable=0;perimeter=centerPerimeter;rotatable=0;allowArrows=0;points=[];outlineConnect=1;" vertex="1" parent="1">
          <mxGeometry x="300" y="500" width="10" height="10" as="geometry" />
        </mxCell>
        <mxCell id="IzAMs5iCtXHGtNtHmFGW-25" value="" style="rounded=0;orthogonalLoop=1;jettySize=auto;html=1;endArrow=halfCircle;endFill=0;endSize=6;strokeWidth=1;sketch=0;exitX=0.539;exitY=1;exitDx=0;exitDy=0;exitPerimeter=0;" edge="1" target="IzAMs5iCtXHGtNtHmFGW-27" parent="1" source="IzAMs5iCtXHGtNtHmFGW-8">
          <mxGeometry relative="1" as="geometry">
            <mxPoint x="340" y="685" as="sourcePoint" />
          </mxGeometry>
        </mxCell>
        <mxCell id="IzAMs5iCtXHGtNtHmFGW-26" value="" style="rounded=0;orthogonalLoop=1;jettySize=auto;html=1;endArrow=oval;endFill=0;sketch=0;sourcePerimeterSpacing=0;targetPerimeterSpacing=0;endSize=10;" edge="1" target="IzAMs5iCtXHGtNtHmFGW-27" parent="1" source="IzAMs5iCtXHGtNtHmFGW-10">
          <mxGeometry relative="1" as="geometry">
            <mxPoint x="300" y="685" as="sourcePoint" />
          </mxGeometry>
        </mxCell>
        <mxCell id="IzAMs5iCtXHGtNtHmFGW-27" value="" style="ellipse;whiteSpace=wrap;html=1;align=center;aspect=fixed;fillColor=none;strokeColor=none;resizable=0;perimeter=centerPerimeter;rotatable=0;allowArrows=0;points=[];outlineConnect=1;" vertex="1" parent="1">
          <mxGeometry x="315" y="680" width="10" height="10" as="geometry" />
        </mxCell>
      </root>
    </mxGraphModel>
  </diagram>
</mxfile>
